<mxfile host="Electron" modified="2024-12-16T23:35:23.720Z" agent="Mozilla/5.0 (Windows NT 10.0; Win64; x64) AppleWebKit/537.36 (KHTML, like Gecko) draw.io/22.0.3 Chrome/114.0.5735.289 Electron/25.8.4 Safari/537.36" etag="-oe18leKEXUxZuWY7A5v" version="22.0.3" type="device">
  <diagram name="Page-1" id="EudnYsIo-RnMq2IU5xQc">
    <mxGraphModel dx="1400" dy="839" grid="0" gridSize="10" guides="1" tooltips="1" connect="1" arrows="1" fold="1" page="0" pageScale="1" pageWidth="850" pageHeight="1100" math="0" shadow="0">
      <root>
        <mxCell id="0" />
        <mxCell id="1" parent="0" />
        <mxCell id="8RTj9Z-H63eaoZDmaVi--1" value="&lt;font face=&quot;Times New Roman&quot;&gt;Visualization Platform (React)&lt;/font&gt;" style="rounded=0;whiteSpace=wrap;html=1;fillColor=#B5739D;strokeColor=#990099;gradientColor=#990099;" parent="1" vertex="1">
          <mxGeometry x="200" y="60" width="776" height="60" as="geometry" />
        </mxCell>
        <mxCell id="8RTj9Z-H63eaoZDmaVi--3" value="&lt;font face=&quot;Times New Roman&quot;&gt;Authorization&amp;nbsp;&lt;/font&gt;&lt;br&gt;&lt;font face=&quot;Times New Roman&quot;&gt;User Management Micorservice&lt;/font&gt;" style="rounded=0;whiteSpace=wrap;html=1;fillColor=#B5739D;strokeColor=#990099;gradientColor=#990099;" parent="1" vertex="1">
          <mxGeometry x="200" y="200" width="120" height="60" as="geometry" />
        </mxCell>
        <mxCell id="8RTj9Z-H63eaoZDmaVi--4" value="&lt;font face=&quot;Times New Roman&quot;&gt;Device Management Microservice&lt;/font&gt;" style="rounded=0;whiteSpace=wrap;html=1;fillColor=#B5739D;strokeColor=#990099;gradientColor=#990099;" parent="1" vertex="1">
          <mxGeometry x="378" y="200" width="120" height="60" as="geometry" />
        </mxCell>
        <mxCell id="8RTj9Z-H63eaoZDmaVi--11" value="&lt;font face=&quot;Times New Roman&quot;&gt;User Database&lt;/font&gt;" style="shape=cylinder3;whiteSpace=wrap;html=1;boundedLbl=1;backgroundOutline=1;size=15;fillColor=#E6D0DE;strokeColor=#A680B8;gradientColor=#CDA2BE;" parent="1" vertex="1">
          <mxGeometry x="200" y="360" width="120" height="80" as="geometry" />
        </mxCell>
        <mxCell id="8RTj9Z-H63eaoZDmaVi--12" value="&lt;font face=&quot;Times New Roman&quot;&gt;Device Database&lt;/font&gt;" style="shape=cylinder3;whiteSpace=wrap;html=1;boundedLbl=1;backgroundOutline=1;size=15;fillColor=#E6D0DE;strokeColor=#A680B8;gradientColor=#CDA2BE;" parent="1" vertex="1">
          <mxGeometry x="378" y="360" width="120" height="80" as="geometry" />
        </mxCell>
        <mxCell id="8RTj9Z-H63eaoZDmaVi--13" value="" style="endArrow=classic;html=1;rounded=0;entryX=0.672;entryY=0.011;entryDx=0;entryDy=0;entryPerimeter=0;" parent="1" edge="1">
          <mxGeometry width="50" height="50" relative="1" as="geometry">
            <mxPoint x="259.4966666666668" y="120" as="sourcePoint" />
            <mxPoint x="260.1400000000001" y="200.65999999999997" as="targetPoint" />
          </mxGeometry>
        </mxCell>
        <mxCell id="8RTj9Z-H63eaoZDmaVi--14" value="" style="endArrow=classic;html=1;rounded=0;entryX=0.5;entryY=0;entryDx=0;entryDy=0;entryPerimeter=0;" parent="1" target="8RTj9Z-H63eaoZDmaVi--11" edge="1">
          <mxGeometry width="50" height="50" relative="1" as="geometry">
            <mxPoint x="259.4966666666668" y="260" as="sourcePoint" />
            <mxPoint x="260.5" y="341" as="targetPoint" />
          </mxGeometry>
        </mxCell>
        <mxCell id="8RTj9Z-H63eaoZDmaVi--16" value="" style="endArrow=classic;html=1;rounded=0;entryX=0.5;entryY=0;entryDx=0;entryDy=0;entryPerimeter=0;" parent="1" edge="1">
          <mxGeometry width="50" height="50" relative="1" as="geometry">
            <mxPoint x="437.4966666666668" y="260" as="sourcePoint" />
            <mxPoint x="438" y="360" as="targetPoint" />
          </mxGeometry>
        </mxCell>
        <mxCell id="8RTj9Z-H63eaoZDmaVi--17" value="" style="endArrow=classic;html=1;rounded=0;entryX=0.672;entryY=0.011;entryDx=0;entryDy=0;entryPerimeter=0;" parent="1" edge="1">
          <mxGeometry width="50" height="50" relative="1" as="geometry">
            <mxPoint x="437.4966666666668" y="119" as="sourcePoint" />
            <mxPoint x="438.5" y="200" as="targetPoint" />
          </mxGeometry>
        </mxCell>
        <mxCell id="pzrst-nGuM3kkzFn_z1G-3" value="&lt;font face=&quot;Times New Roman&quot;&gt;Monitoring and Comunication Microservice&lt;/font&gt;" style="rounded=0;whiteSpace=wrap;html=1;fillColor=#B5739D;strokeColor=#990099;gradientColor=#990099;" vertex="1" parent="1">
          <mxGeometry x="560" y="200" width="120" height="60" as="geometry" />
        </mxCell>
        <mxCell id="pzrst-nGuM3kkzFn_z1G-4" value="&lt;font face=&quot;Times New Roman&quot;&gt;Monitoring Database&lt;/font&gt;" style="shape=cylinder3;whiteSpace=wrap;html=1;boundedLbl=1;backgroundOutline=1;size=15;fillColor=#E6D0DE;strokeColor=#A680B8;gradientColor=#CDA2BE;" vertex="1" parent="1">
          <mxGeometry x="560" y="360" width="120" height="80" as="geometry" />
        </mxCell>
        <mxCell id="pzrst-nGuM3kkzFn_z1G-5" value="" style="endArrow=classic;html=1;rounded=0;entryX=0.5;entryY=0;entryDx=0;entryDy=0;entryPerimeter=0;" edge="1" parent="1">
          <mxGeometry width="50" height="50" relative="1" as="geometry">
            <mxPoint x="619.4966666666668" y="260" as="sourcePoint" />
            <mxPoint x="620" y="360" as="targetPoint" />
          </mxGeometry>
        </mxCell>
        <mxCell id="pzrst-nGuM3kkzFn_z1G-9" value="" style="endArrow=classic;startArrow=classic;html=1;rounded=0;entryX=0.93;entryY=1;entryDx=0;entryDy=0;entryPerimeter=0;" edge="1" parent="1">
          <mxGeometry width="50" height="50" relative="1" as="geometry">
            <mxPoint x="620" y="200" as="sourcePoint" />
            <mxPoint x="620.2" y="120" as="targetPoint" />
            <Array as="points">
              <mxPoint x="620" y="153" />
            </Array>
          </mxGeometry>
        </mxCell>
        <mxCell id="pzrst-nGuM3kkzFn_z1G-10" value="&lt;b&gt;WebSocket&lt;/b&gt;" style="text;html=1;strokeColor=none;fillColor=none;align=center;verticalAlign=middle;whiteSpace=wrap;rounded=0;" vertex="1" parent="1">
          <mxGeometry x="630" y="144" width="60" height="30" as="geometry" />
        </mxCell>
        <mxCell id="pzrst-nGuM3kkzFn_z1G-11" value="" style="shape=cylinder3;whiteSpace=wrap;html=1;boundedLbl=1;backgroundOutline=1;size=15;rotation=90;fillColor=#B5739D;gradientDirection=east;strokeColor=#990099;gradientColor=#990099;rounded=0;" vertex="1" parent="1">
          <mxGeometry x="514.5" y="463.5" width="42" height="143" as="geometry" />
        </mxCell>
        <mxCell id="pzrst-nGuM3kkzFn_z1G-12" value="&lt;b&gt;RabbitMQ&lt;/b&gt;" style="text;html=1;strokeColor=none;fillColor=none;align=center;verticalAlign=middle;whiteSpace=wrap;rounded=0;" vertex="1" parent="1">
          <mxGeometry x="500" y="519" width="60" height="32" as="geometry" />
        </mxCell>
        <mxCell id="pzrst-nGuM3kkzFn_z1G-15" style="edgeStyle=orthogonalEdgeStyle;rounded=0;orthogonalLoop=1;jettySize=auto;html=1;exitX=0.5;exitY=0;exitDx=0;exitDy=0;exitPerimeter=0;entryX=0.576;entryY=0.973;entryDx=0;entryDy=0;entryPerimeter=0;" edge="1" parent="1" source="pzrst-nGuM3kkzFn_z1G-11" target="pzrst-nGuM3kkzFn_z1G-4">
          <mxGeometry relative="1" as="geometry" />
        </mxCell>
        <mxCell id="pzrst-nGuM3kkzFn_z1G-16" value="Topic for metering devices changes" style="text;html=1;strokeColor=none;fillColor=none;align=center;verticalAlign=middle;whiteSpace=wrap;rounded=0;" vertex="1" parent="1">
          <mxGeometry x="446" y="564" width="184" height="30" as="geometry" />
        </mxCell>
        <mxCell id="pzrst-nGuM3kkzFn_z1G-19" style="edgeStyle=orthogonalEdgeStyle;rounded=0;orthogonalLoop=1;jettySize=auto;html=1;entryX=0.5;entryY=1;entryDx=0;entryDy=0;entryPerimeter=0;" edge="1" parent="1" source="8RTj9Z-H63eaoZDmaVi--12" target="pzrst-nGuM3kkzFn_z1G-11">
          <mxGeometry relative="1" as="geometry" />
        </mxCell>
        <mxCell id="pzrst-nGuM3kkzFn_z1G-20" value="User ID&lt;br&gt;Email" style="text;html=1;strokeColor=none;fillColor=none;align=center;verticalAlign=middle;whiteSpace=wrap;rounded=0;" vertex="1" parent="1">
          <mxGeometry x="568" y="457" width="60" height="30" as="geometry" />
        </mxCell>
        <mxCell id="pzrst-nGuM3kkzFn_z1G-21" value="Device ID" style="text;html=1;strokeColor=none;fillColor=none;align=center;verticalAlign=middle;whiteSpace=wrap;rounded=0;" vertex="1" parent="1">
          <mxGeometry x="636" y="457" width="60" height="30" as="geometry" />
        </mxCell>
        <mxCell id="pzrst-nGuM3kkzFn_z1G-25" value="" style="group" vertex="1" connectable="0" parent="1">
          <mxGeometry x="727" y="354" width="118" height="34.5" as="geometry" />
        </mxCell>
        <mxCell id="pzrst-nGuM3kkzFn_z1G-23" value="" style="shape=cylinder3;whiteSpace=wrap;html=1;boundedLbl=1;backgroundOutline=1;size=15;rotation=90;fillColor=#B5739D;gradientDirection=east;strokeColor=#990099;gradientColor=#990099;rounded=0;" vertex="1" parent="pzrst-nGuM3kkzFn_z1G-25">
          <mxGeometry x="41.75" y="-41.75" width="34.5" height="118" as="geometry" />
        </mxCell>
        <mxCell id="pzrst-nGuM3kkzFn_z1G-24" value="&lt;b&gt;RabbitMQ&lt;/b&gt;" style="text;html=1;strokeColor=none;fillColor=none;align=center;verticalAlign=middle;whiteSpace=wrap;rounded=0;" vertex="1" parent="pzrst-nGuM3kkzFn_z1G-25">
          <mxGeometry x="33.25" y="5" width="43" height="24.5" as="geometry" />
        </mxCell>
        <mxCell id="pzrst-nGuM3kkzFn_z1G-28" style="edgeStyle=orthogonalEdgeStyle;rounded=0;orthogonalLoop=1;jettySize=auto;html=1;entryX=1;entryY=0;entryDx=0;entryDy=52.5;entryPerimeter=0;exitX=0.998;exitY=0.604;exitDx=0;exitDy=0;exitPerimeter=0;" edge="1" parent="1" source="pzrst-nGuM3kkzFn_z1G-23" target="pzrst-nGuM3kkzFn_z1G-4">
          <mxGeometry relative="1" as="geometry">
            <mxPoint x="774" y="390" as="sourcePoint" />
            <Array as="points">
              <mxPoint x="774" y="413" />
            </Array>
          </mxGeometry>
        </mxCell>
        <mxCell id="pzrst-nGuM3kkzFn_z1G-29" value="&lt;font face=&quot;Times New Roman&quot;&gt;Client 1 Device Simulator&amp;nbsp;&lt;/font&gt;" style="rounded=0;whiteSpace=wrap;html=1;fillColor=#B5739D;strokeColor=#990099;gradientColor=#990099;" vertex="1" parent="1">
          <mxGeometry x="848" y="281" width="120" height="60" as="geometry" />
        </mxCell>
        <mxCell id="pzrst-nGuM3kkzFn_z1G-30" value="Device ID" style="text;html=1;strokeColor=none;fillColor=none;align=center;verticalAlign=middle;whiteSpace=wrap;rounded=0;" vertex="1" parent="1">
          <mxGeometry x="756" y="317" width="60" height="30" as="geometry" />
        </mxCell>
        <mxCell id="pzrst-nGuM3kkzFn_z1G-31" value="&lt;font face=&quot;Times New Roman&quot;&gt;Client N Device Simulator&amp;nbsp;&lt;/font&gt;" style="rounded=0;whiteSpace=wrap;html=1;fillColor=#B5739D;strokeColor=#990099;gradientColor=#990099;" vertex="1" parent="1">
          <mxGeometry x="854" y="397" width="120" height="60" as="geometry" />
        </mxCell>
        <mxCell id="pzrst-nGuM3kkzFn_z1G-32" value="&lt;b&gt;...&lt;/b&gt;" style="text;html=1;strokeColor=none;fillColor=none;align=center;verticalAlign=middle;whiteSpace=wrap;rounded=0;" vertex="1" parent="1">
          <mxGeometry x="925" y="354" width="16" height="18" as="geometry" />
        </mxCell>
        <mxCell id="pzrst-nGuM3kkzFn_z1G-33" style="edgeStyle=orthogonalEdgeStyle;rounded=0;orthogonalLoop=1;jettySize=auto;html=1;exitX=0.5;exitY=1;exitDx=0;exitDy=0;entryX=0.221;entryY=0.015;entryDx=0;entryDy=0;entryPerimeter=0;" edge="1" parent="1" source="pzrst-nGuM3kkzFn_z1G-29" target="pzrst-nGuM3kkzFn_z1G-23">
          <mxGeometry relative="1" as="geometry" />
        </mxCell>
        <mxCell id="pzrst-nGuM3kkzFn_z1G-34" style="edgeStyle=orthogonalEdgeStyle;rounded=0;orthogonalLoop=1;jettySize=auto;html=1;exitX=0.5;exitY=0;exitDx=0;exitDy=0;entryX=0.671;entryY=0.014;entryDx=0;entryDy=0;entryPerimeter=0;" edge="1" parent="1" source="pzrst-nGuM3kkzFn_z1G-31" target="pzrst-nGuM3kkzFn_z1G-23">
          <mxGeometry relative="1" as="geometry" />
        </mxCell>
      </root>
    </mxGraphModel>
  </diagram>
</mxfile>
